{"title":"Blood.Out.2011.DvDRip.XviD.Ac3.Feel-Free ","uid":6319623,"size":922938378,"categoryP":"video","categoryS":"movies","magnet":"?xt=urn:btih:0bf96f1f41731d22b4e7822541f186a8caa4dbe2&amp;dn=Blood.Out.2011.DvDRip.XviD.Ac3.Feel-Free+&amp;tr=udp%3A%2F%2Ftracker.openbittorrent.com%3A80&amp;tr=udp%3A%2F%2Fopen.demonii.com%3A1337&amp;tr=udp%3A%2F%2Ftracker.coppersurfer.tk%3A6969&amp;tr=udp%3A%2F%2Fexodus.desync.com%3A6969","seeders":1,"leechers":1,"uploader":"HeroMaster","files":-1,"time":1302892978,"description":"Blood.Out.2011.DvDRip.XviD.Ac3.Feel-Free \n\nGenre:Action\nLanguage:English\nIMDb:http://www.imdb.com/title/tt1477675/\nSource:PAL DVD IMAGINE Thanks!\n\n\nFormat : AVI\nFormat/Info : Audio Video Interleave\nFile size : 879 MiB\nDuration : 1h 25mn\nOverall bit rate : 1 446 Kbps\n\n\nVideo\nID : 0\nFormat : MPEG-4 Visual\nFormat profile : Advanced Simple@L5\nFormat settings, BVOP : Yes\nFormat settings, QPel : No\nFormat settings, GMC : No warppoints\nFormat settings, Matrix : Default (H.263)\nMuxing mode : Packed bitstream\nCodec ID : XVID\nCodec ID/Hint : XviD\nDuration : 1h 25mn\nBit rate : 988 Kbps\nWidth : 652 pixels\nHeight : 352 pixels\nDisplay aspect ratio : 1.852\nFrame rate : 25.000 fps\nColor space : YUV\nChroma subsampling : 4:2:0\nBit depth : 8 bits\nScan type : Progressive\nBits/(Pixel*Frame) : 0.172\nStream size : 601 MiB (68%)\nWriting library : XviD 1.2.1 (UTC 2008-12-04)\n\nAudio\nID : 1\nFormat : AC-3\nFormat/Info : Audio Coding 3\nMode extension : CM (complete main)\nCodec ID : 2000\nDuration : 1h 25mn\nBit rate mode : Constant\nBit rate : 448 Kbps\nChannel(s) : 6 channels\nChannel positions : Front: L C R, Side: L R, LFE\nSampling rate : 48.0 KHz\nBit depth : 16 bits\nStream size : 272 MiB (31%)\nAlignment : Split accross interleaves\nInterleave, duration : 40 ms (1.00 video frame)\nInterleave, preload duration : 500 ms\n\n\nPlot:\n\nWhen big city detectives refuse to further investigate his kid brother's gang related murder, small town Sheriff Michael Spencer drops the badge and goes undercover to find his brother's killer and avenge his death.\n\n\nScreens:\n\n &lt;a href=&quot;\nhttp://leetleech.org/images/79834216044681529104.png&quot; rel=&quot;nofollow&quot; target=&quot;_NEW&quot;&gt;\nhttp://leetleech.org/images/79834216044681529104.png&lt;/a&gt;\n &lt;a href=&quot;\nhttp://leetleech.org/images/51280752212952604999.png&quot; rel=&quot;nofollow&quot; target=&quot;_NEW&quot;&gt;\nhttp://leetleech.org/images/51280752212952604999.png&lt;/a&gt;\n\n\nENJOY!","torrent":{"xt":"urn:btih:0bf96f1f41731d22b4e7822541f186a8caa4dbe2","amp;dn":"Blood.Out.2011.DvDRip.XviD.Ac3.Feel-Free+","amp;tr":["udp%3A%2F%2Ftracker.openbittorrent.com%3A80","udp%3A%2F%2Fopen.demonii.com%3A1337","udp%3A%2F%2Ftracker.coppersurfer.tk%3A6969","udp%3A%2F%2Fexodus.desync.com%3A6969"],"infoHash":"0bf96f1f41731d22b4e7822541f186a8caa4dbe2","infoHashBuffer":{"type":"Buffer","data":[11,249,111,31,65,115,29,34,180,231,130,37,65,241,134,168,202,164,219,226]},"announce":[],"urlList":[]}}